<?xml version="1.0" encoding="utf-8"?>
<!-- Generator: Adobe Illustrator 25.3.1, SVG Export Plug-In . SVG Version: 6.00 Build 0)  -->
<svg version="1.1" id="Capa_1" xmlns="http://www.w3.org/2000/svg" xmlns:xlink="http://www.w3.org/1999/xlink" x="0px" y="0px"
	 viewBox="0 0 150 38" style="enable-background:new 0 0 150 38;" xml:space="preserve">
<style type="text/css">
	.st0{fill:#0272B1;}
</style>
<g>
	<path class="st0" d="M21.8,0.1H7c-3.8,0-6.9,3.2-6.9,7.1v14.3c0,3.9,3.1,7.1,6.9,7.1h14.8c3.8,0,6.9-3.2,6.9-7.1V7.3
		C28.7,3.3,25.6,0.1,21.8,0.1 M5.5,17.8c-3-3.4-2.8-11.2,2.4-13.7c2.6-1.2,5.2,1.3,3.7,3.2C7.9,12,5.5,17.6,5.5,17.8 M7.2,17.8
		c0.5-1.1,3.9-8.1,7.3-11.4c3.6-3.6,11.2,4,7.6,7.6c-3.4,3.4-10.4,6.8-11.4,7.3C9,22,6.5,19.5,7.2,17.8 M24.3,20.6
		C21.9,25.8,14.1,26,10.7,23c0.2,0,5.8-2.4,10.5-6C23.1,15.4,25.5,18.1,24.3,20.6"/>
	<path class="st0" d="M43.6,13.7c1.6-0.7,2.4-2,2.4-3.9c0-1.5-0.5-2.6-1.5-3.4S42,5.2,40.2,5.2h-6.7v18.4h7.1c2,0,3.6-0.5,4.7-1.4
		c1.1-0.9,1.7-2.2,1.7-3.9c0-1.1-0.3-2-0.9-2.9C45.4,14.6,44.6,14.1,43.6,13.7 M36.3,7.7h3.4c1.1,0,1.9,0.2,2.4,0.6
		c0.5,0.4,0.8,1,0.8,1.8c0,1-0.3,1.7-0.8,2.1c-0.6,0.5-1.4,0.7-2.6,0.7h-3.2C36.3,12.9,36.3,7.7,36.3,7.7z M42.9,20.4
		c-0.6,0.5-1.4,0.7-2.5,0.7h-4.1v-5.8h3.8c2.4,0,3.7,1,3.7,2.9C43.8,19.2,43.5,19.9,42.9,20.4"/>
	<path class="st0" d="M58.6,13.1c-0.4-0.7-1-1.2-1.7-1.5c-0.7-0.4-1.5-0.5-2.4-0.5c-1.1,0-2.1,0.3-3.1,0.9c-0.9,0.6-1.6,1.4-2.1,2.4
		s-0.7,2.1-0.7,3.2c0,1.3,0.3,2.4,0.8,3.4s1.2,1.7,2.1,2.3c0.9,0.5,1.9,0.8,3,0.8c2,0,3.4-0.7,4.3-2.1v1.7h2.7V11.4h-2.7L58.6,13.1z
		 M57.7,20.3C57,21,56.1,21.4,55,21.4c-1.1,0-2-0.4-2.7-1.1s-1-1.7-1-2.9s0.3-2.1,1-2.9c0.7-0.7,1.6-1.1,2.7-1.1
		c1.1,0,2,0.4,2.7,1.1c0.7,0.7,1,1.7,1,2.9S58.3,19.6,57.7,20.3"/>
	<rect x="64.2" y="11.4" class="st0" width="2.8" height="12.2"/>
	<path class="st0" d="M65.6,5.1c-0.5,0-0.9,0.2-1.2,0.5c-0.3,0.3-0.5,0.7-0.5,1.2s0.2,0.9,0.5,1.2c0.3,0.3,0.7,0.5,1.2,0.5
		s0.9-0.2,1.2-0.5c0.3-0.3,0.5-0.7,0.5-1.2s-0.2-0.9-0.5-1.2C66.5,5.3,66.1,5.1,65.6,5.1"/>
	<path class="st0" d="M76.2,11.2c-0.8,0-1.5,0.2-2.1,0.6c-0.6,0.4-1.1,0.9-1.4,1.7v-2.1H70v12.2h2.8v-5.7c0-1.3,0.3-2.3,0.8-3
		s1.3-1.1,2.3-1.1c0.5,0,1,0.1,1.4,0.3l0.3-2.6c-0.2-0.1-0.4-0.1-0.7-0.2C76.6,11.2,76.4,11.2,76.2,11.2"/>
	<path class="st0" d="M87.3,11.7c-0.9-0.5-1.8-0.7-3-0.7s-2.3,0.3-3.2,0.9c-0.9,0.6-1.7,1.3-2.2,2.3s-0.8,2.1-0.8,3.3
		c0,1.3,0.3,2.5,0.9,3.5s1.4,1.7,2.4,2.2s2,0.8,3.4,0.8c0.9,0,1.4-0.1,2.2-0.3c0.8-0.2,1.5-0.4,2.1-0.8l-0.3-2.2
		c-1.3,0.6-2.4,0.9-3.8,0.9c-1.2,0-2-0.3-2.7-0.9c-0.8-0.6-1.2-1.4-1.4-2.4h9C90,18.1,90,17.6,90,17c0-1.2-0.2-2.3-0.7-3.2
		C88.8,12.9,88.2,12.2,87.3,11.7 M80.9,16.3c0.1-1,0.5-1.8,1.1-2.3s1.3-0.8,2.2-0.8c0.9,0,1.7,0.3,2.2,0.8s0.8,1.3,0.9,2.3H80.9z"/>
	<path class="st0" d="M97.1,16.2c-0.6-0.2-1.1-0.3-1.5-0.5c-0.3-0.2-0.6-0.3-0.7-0.5s-0.2-0.4-0.2-0.7c0-0.4,0.2-0.7,0.6-0.9
		s0.9-0.3,1.6-0.3c0.6,0,1.2,0.1,1.8,0.3c0.6,0.2,1.2,0.4,1.7,0.7l0.4-2.3c-0.5-0.3-1-0.5-1.8-0.7c-0.7-0.2-1.4-0.3-2.2-0.3
		c-1.5,0-2.6,0.3-3.5,1S92,13.6,92,14.7c0,1,0.3,1.7,0.9,2.3c0.6,0.6,1.6,1.1,3,1.5c0.7,0.2,1.2,0.4,1.6,0.5
		c0.4,0.2,0.6,0.3,0.8,0.5c0.2,0.2,0.2,0.4,0.2,0.8c0,0.9-0.8,1.4-2.5,1.4c-0.6,0-1.3-0.1-2.1-0.4c-0.7-0.2-1.3-0.5-1.9-0.9
		l-0.4,2.3c0.5,0.4,1.1,0.6,1.9,0.8c0.8,0.2,1.6,0.3,2.5,0.3c1.6,0,2.8-0.3,3.8-1c0.9-0.7,1.4-1.6,1.4-2.7c0-1-0.3-1.8-1-2.4
		C99.7,17.2,98.6,16.7,97.1,16.2"/>
	<path class="st0" d="M118.2,7.4c-1.8-1.6-4.4-2.5-7.6-2.5h-7.3v18.9h7c3.3,0,6-0.8,7.8-2.5c1.9-1.7,2.8-4,2.8-7
		C121,11.4,120.1,9.1,118.2,7.4 M116.6,14.4c0,4-2.1,5.9-6.3,5.9h-2.7V8.5h2.8C114.6,8.5,116.6,10.4,116.6,14.4"/>
	<path class="st0" d="M132.5,11.4c-0.9-0.5-2-0.8-3.2-0.8c-1.3,0-2.5,0.3-3.5,0.9c-1,0.6-1.8,1.4-2.3,2.5c-0.5,1-0.8,2.2-0.8,3.5
		c0,1.4,0.3,2.6,0.9,3.6s1.5,1.8,2.6,2.4c1.1,0.5,2.1,0.8,3.6,0.8c0.9,0,1.6-0.1,2.4-0.3c0.9-0.2,1.6-0.4,2.2-0.8l0.2-0.1l-0.4-3.2
		l-0.4,0.2c-0.5,0.3-1.2,0.5-1.8,0.6c-0.7,0.1-1.1,0.2-1.8,0.2c-2.1,0-3.1-0.7-3.5-2.2h8.5v-0.2c0.1-0.4,0.1-1,0.1-1.5
		c0-1.3-0.3-2.4-0.8-3.4C134.1,12.6,133.4,11.9,132.5,11.4 M131.6,15.8h-4.9c0.2-0.6,0.4-1.1,0.8-1.5s1-0.6,1.7-0.6
		c0.7,0,1.3,0.2,1.7,0.6C131.3,14.7,131.5,15.2,131.6,15.8"/>
	<polygon class="st0" points="145.8,11 143,19.2 140.4,11 136.1,11 141,23.9 144.9,23.9 149.9,11 	"/>
</g>
<g>
	<path class="st0" d="M58.7,25.8h8.1v2.5H64v9.4h-2.6v-9.4h-2.7V25.8z"/>
	<path class="st0" d="M68.2,27c0-0.4,0.2-0.7,0.4-1c0.3-0.3,0.6-0.4,1-0.4c0.4,0,0.7,0.2,1,0.4c0.3,0.3,0.4,0.6,0.4,1
		c0,0.4-0.2,0.8-0.4,1c-0.3,0.3-0.6,0.4-1,0.4c-0.4,0-0.7-0.2-1-0.4C68.3,27.8,68.2,27.5,68.2,27z M68.4,29.9h2.3v7.8h-2.3
		C68.4,37.7,68.4,29.9,68.4,29.9z"/>
	<path class="st0" d="M75.6,29.9v1.3c0.1-0.1,0.2-0.2,0.5-0.4c0.2-0.2,0.4-0.4,0.6-0.5s0.5-0.2,0.7-0.3c0.3-0.1,0.5-0.2,0.8-0.2
		c0.4,0,0.8,0.2,1.2,0.4c0.4,0.2,0.8,0.7,1,1.3c0.5-0.6,0.9-1.1,1.4-1.3c0.5-0.2,0.9-0.4,1.3-0.4c0.7,0,1.3,0.3,1.8,0.9
		c0.5,0.5,0.7,1.3,0.7,2.2v4.9h-2.3v-4.3c0-0.4-0.2-0.8-0.4-1.1c-0.2-0.3-0.5-0.4-0.8-0.4c-0.4,0-0.8,0.2-1,0.5
		c-0.3,0.3-0.5,0.7-0.5,1.2v4.1h-2.3v-4.2c0-0.5-0.2-0.9-0.4-1.2c-0.2-0.3-0.5-0.5-0.9-0.5c-0.4,0-0.8,0.2-1,0.5
		c-0.3,0.3-0.5,0.8-0.5,1.3v4.1h-2.3v-7.8C73.2,29.9,75.6,29.9,75.6,29.9z"/>
	<path class="st0" d="M95.3,34.4h-5.6c0,0.5,0.2,0.9,0.5,1.3s0.6,0.5,1,0.5c0.7,0,1.3-0.3,1.7-0.9l2.1,0.7c-0.8,1.4-2,2.1-3.7,2.1
		c-1.3,0-2.2-0.4-3-1.1c-0.7-0.8-1.1-1.7-1.1-3c0-1.1,0.4-2.1,1.2-2.9c0.8-0.8,1.7-1.2,2.8-1.2s2,0.4,2.8,1.3
		c0.8,0.8,1.1,1.8,1.1,3.1L95.3,34.4L95.3,34.4z M89.7,32.9h3.1c-0.2-0.9-0.7-1.5-1.5-1.5c-0.5,0-0.8,0.2-1.1,0.4
		C89.9,32,89.7,32.4,89.7,32.9z"/>
	<path class="st0" d="M96.3,26.1h7.1v1.6h-2.7v10h-1.6v-9.9h-2.7L96.3,26.1L96.3,26.1z"/>
	<path class="st0" d="M105.8,30.3v1.6c0.3-0.6,0.7-1.1,1-1.3c0.3-0.3,0.8-0.4,1.3-0.4c0.2,0,0.4,0,0.6,0.1l-0.5,1.6
		c-0.3-0.1-0.5-0.1-0.6-0.1c-0.5,0-1,0.2-1.3,0.5c-0.4,0.4-0.5,0.9-0.5,1.4v4.1h-1.6v-7.5C104.3,30.3,105.8,30.3,105.8,30.3z"/>
	<path class="st0" d="M116.4,30.3h1.6v7.5h-1.6v-1.5c-0.8,1.2-1.7,1.7-2.9,1.7c-1,0-1.8-0.4-2.5-1.2s-1-1.7-1-2.8c0-1,0.4-2,1.1-2.7
		c0.7-0.8,1.6-1.2,2.5-1.2c0.6,0,1.2,0.2,1.6,0.5c0.5,0.3,0.9,0.7,1.3,1.3L116.4,30.3L116.4,30.3z M116.6,34.1
		c0-0.7-0.2-1.3-0.7-1.8c-0.5-0.5-1.1-0.7-1.8-0.7c-0.7,0-1.3,0.2-1.7,0.7c-0.5,0.5-0.8,1-0.8,1.7s0.2,1.3,0.7,1.8
		c0.5,0.5,1.1,0.8,1.8,0.8c0.7,0,1.3-0.2,1.8-0.7C116.4,35.3,116.6,34.8,116.6,34.1z"/>
	<path class="st0" d="M126,35.5v1.8c-0.8,0.5-1.6,0.7-2.3,0.7c-1,0-2-0.4-2.7-1.2c-0.8-0.8-1.2-1.6-1.2-2.7c0-1.2,0.4-2.1,1.2-2.9
		c0.8-0.8,1.7-1.2,2.9-1.2c0.7,0,1.4,0.2,2.2,0.5v1.8c-0.8-0.5-1.6-0.8-2.3-0.8c-0.6,0-1.3,0.2-1.7,0.7c-0.5,0.5-0.7,1-0.7,1.6
		c0,0.7,0.2,1.3,0.7,1.8c0.5,0.5,1,0.7,1.7,0.7C124.4,36.4,125.2,36.1,126,35.5z"/>
	<path class="st0" d="M127.8,26h1.6v7.6l3.1-3.3h2l-3.2,3.4l3.3,4.1h-2l-3.2-4v4h-1.6L127.8,26L127.8,26z"/>
	<path class="st0" d="M143.3,34.3h-6.4c0.2,0.8,0.5,1.3,0.9,1.7c0.5,0.4,1,0.5,1.6,0.5c0.9,0,1.6-0.4,2.3-1.1l1.2,0.9
		c-0.9,1.1-2,1.7-3.5,1.7c-1.1,0-2-0.4-2.8-1.2c-0.8-0.8-1.1-1.7-1.1-2.8c0-1.1,0.4-2,1.2-2.7c0.8-0.8,1.7-1.2,2.8-1.2
		s2,0.4,2.7,1.2C142.9,32,143.3,33,143.3,34.3z M137,33h4.6c-0.5-1-1.3-1.6-2.3-1.6C138.2,31.5,137.5,32,137,33z"/>
	<path class="st0" d="M146.8,30.3v1.6c0.3-0.6,0.7-1.1,1-1.3c0.3-0.2,0.8-0.4,1.3-0.4c0.2,0,0.4,0,0.6,0.1l-0.5,1.6
		c-0.3-0.1-0.5-0.1-0.6-0.1c-0.5,0-1,0.2-1.3,0.5c-0.4,0.4-0.5,0.9-0.5,1.4v4.1h-1.6v-7.5C145.2,30.3,146.8,30.3,146.8,30.3z"/>
</g>
</svg>
