<svg width="100%" height="100%" viewBox="0 0 29 29"  xmlns="http://www.w3.org/2000/svg" style="fill-rule:evenodd;clip-rule:evenodd;stroke-linejoin:round;stroke-miterlimit:2;" fill="currentColor">
    <g transform="matrix(1,0,0,1,-0.1,-0.1)">
        <path d="M21.8,0.1L7,0.1C3.2,0.1 0.1,3.3 0.1,7.2L0.1,21.5C0.1,25.4 3.2,28.6 7,28.6L21.8,28.6C25.6,28.6 28.7,25.4 28.7,21.5L28.7,7.3C28.7,3.3 25.6,0.1 21.8,0.1M5.5,17.8C2.5,14.4 2.7,6.6 7.9,4.1C10.5,2.9 13.1,5.4 11.6,7.3C7.9,12 5.5,17.6 5.5,17.8M7.2,17.8C7.7,16.7 11.1,9.7 14.5,6.4C18.1,2.8 25.7,10.4 22.1,14C18.7,17.4 11.7,20.8 10.7,21.3C9,22 6.5,19.5 7.2,17.8M24.3,20.6C21.9,25.8 14.1,26 10.7,23C10.9,23 16.5,20.6 21.2,17C23.1,15.4 25.5,18.1 24.3,20.6" style="fill:rgb(2,114,177);fill-rule:nonzero;"/>
    </g>
</svg>
